<svg version="1.1" id="Layer_1" xmlns="http://www.w3.org/2000/svg" xmlns:xlink="http://www.w3.org/1999/xlink" x="0px" y="0px"
	 width="100%" viewBox="0 0 1024 1024" enable-background="new 0 0 1024 1024" xml:space="preserve">
<path fill="#000000" opacity="1.000000" stroke="none" 
	d="
M632.335693,329.003845 
	C637.033813,354.352356 641.696533,379.293030 646.359253,404.233704 
	C645.992249,404.556091 645.625244,404.878479 645.258179,405.200897 
	C638.481018,401.305634 631.703796,397.410400 624.367676,393.193909 
	C622.064575,398.713013 620.011108,403.919006 617.740601,409.028534 
	C603.286316,441.555481 583.591797,470.731720 560.792175,497.918030 
	C547.071472,514.278503 532.127747,529.456848 516.689148,544.188843 
	C513.238892,547.481201 510.982758,547.342957 507.514648,544.394592 
	C493.427917,532.418762 479.133759,520.686829 464.909332,508.873108 
	C463.253876,507.498169 461.556458,506.173737 459.417358,504.455566 
	C422.419312,541.014465 385.553192,577.442932 348.323853,614.230347 
	C347.848480,613.023621 347.422028,612.446899 347.424255,611.871948 
	C347.469086,600.378479 347.613495,588.885193 347.608368,577.391907 
	C347.607239,574.875671 348.372894,572.987244 350.175690,571.212708 
	C384.367493,537.558105 418.472992,503.815704 452.715820,470.213196 
	C458.353241,464.681183 456.937988,464.731537 463.447540,469.986115 
	C477.963654,481.703705 492.470154,493.435303 506.826477,505.346954 
	C509.735107,507.760223 511.629578,507.822845 514.355713,505.162018 
	C549.003845,471.343567 576.556396,432.715515 594.437012,387.501953 
	C595.211853,385.542877 596.313049,383.582886 595.882935,381.062408 
	C588.147339,377.966919 579.554565,377.394714 570.976440,373.740875 
	C591.098877,357.084930 610.613525,340.932129 629.873535,324.990082 
	C632.038757,325.910034 632.112549,327.283173 632.335693,329.003845 
z"/>
<path fill="#000000" opacity="1.000000" stroke="none" 
	d="
M614.712402,632.710022 
	C637.790039,608.112427 650.736389,579.463623 652.874695,546.011047 
	C655.356934,507.178314 643.787842,473.148285 618.342102,443.782318 
	C617.113953,442.365021 615.798706,441.066437 616.871887,438.959015 
	C620.409180,432.012512 623.927124,425.056183 627.408264,418.190857 
	C630.764709,418.277466 632.116577,420.622437 633.754639,422.346100 
	C656.922363,446.725281 671.245544,475.529877 676.452820,508.757355 
	C683.889465,556.210144 674.029175,599.701538 644.412537,637.700012 
	C616.293823,673.776672 579.001770,695.610840 533.390442,700.126160 
	C462.533051,707.140808 407.392944,680.124084 368.938538,619.777222 
	C366.421814,615.827698 366.375000,613.140198 370.128021,610.058960 
	C375.341095,605.778931 379.485779,600.249268 385.327576,596.120544 
	C411.017487,643.577332 449.681183,671.416138 503.313507,675.491333 
	C546.623596,678.782288 583.726135,663.639343 614.712402,632.710022 
z"/>
<path fill="#000000" opacity="1.000000" stroke="none" 
	d="
M615.317688,456.728210 
	C633.342773,480.050385 642.839111,506.264496 642.791809,535.250488 
	C642.718262,580.305786 623.842896,616.133667 587.073364,642.369141 
	C586.164185,643.017761 585.048889,643.377441 584.064575,643.854980 
	C582.058228,642.346191 582.773499,640.362122 582.772766,638.663940 
	C582.751831,590.867126 582.810120,543.070251 582.741516,495.273560 
	C582.736206,491.548279 583.848328,488.679535 586.118896,485.740112 
	C593.448120,476.251953 600.308105,466.416534 606.465515,456.110168 
	C607.390076,454.562469 608.419556,453.077423 609.357422,451.629761 
	C612.672424,451.980865 613.340027,454.845367 615.317688,456.728210 
z"/>
<path fill="#000000" opacity="1.000000" stroke="none" 
	d="
M485.354919,471.665649 
	C477.344025,465.117706 469.477722,458.945953 461.925934,452.410767 
	C458.094330,449.095001 455.403564,449.470581 451.891296,452.964264 
	C431.701294,473.047089 411.335388,492.953156 391.010712,512.900452 
	C389.396393,514.484802 387.996857,516.396423 385.813324,517.251831 
	C384.213959,515.753723 384.910767,514.266357 385.172729,512.871582 
	C395.376343,458.544037 438.291809,416.968048 492.921997,408.956451 
	C515.354248,405.666718 537.404907,407.740814 558.710449,415.944611 
	C565.227905,418.454193 565.531616,419.253357 562.000000,425.162018 
	C548.359314,447.984070 532.322571,468.964325 513.892700,488.142944 
	C511.143616,491.003754 509.227722,491.440186 506.086487,488.697540 
	C499.441772,482.895996 492.468262,477.470978 485.354919,471.665649 
z"/>
<path fill="#000000" opacity="1.000000" stroke="none" 
	d="
M398.224091,416.209564 
	C426.047760,390.791809 458.467316,376.150513 495.470245,371.873810 
	C522.965515,368.695984 549.539795,372.963196 575.199829,383.162598 
	C581.564697,385.692474 581.577698,385.792694 578.752563,392.207672 
	C576.740173,396.776947 574.565918,401.275024 572.559753,405.846954 
	C571.339539,408.627563 569.802673,409.470978 566.739258,408.136780 
	C547.644775,399.820770 527.634644,396.312988 506.846741,397.320282 
	C469.222321,399.143311 437.170502,413.425537 410.948639,440.528839 
	C387.006561,465.275726 374.954285,495.244598 372.339508,529.286377 
	C372.209167,530.983032 372.102844,532.582886 370.774353,533.859009 
	C364.169312,540.203430 357.591370,546.576111 350.980164,552.914062 
	C350.400055,553.470154 349.702881,554.014648 347.538330,553.194214 
	C343.506805,500.155579 359.168823,454.155518 398.224091,416.209564 
z"/>
<path fill="#000000" opacity="1.000000" stroke="none" 
	d="
M561.960327,556.000000 
	C561.936218,584.291077 561.924316,612.082092 561.875183,639.873169 
	C561.869629,643.031189 561.063110,646.305542 561.657959,649.322998 
	C562.996643,656.114258 558.921326,657.747314 553.743164,659.270142 
	C545.265137,661.763428 536.709961,663.710815 527.947266,664.874695 
	C524.632080,665.315063 523.565613,664.370361 523.471069,660.976746 
	C522.529968,627.190491 523.283203,593.399048 523.027222,559.611755 
	C523.006653,556.892944 523.478943,554.493103 525.658325,552.401001 
	C536.945068,541.566162 548.229004,530.721558 558.663452,519.040649 
	C559.216797,518.421265 559.820251,517.842590 561.961548,518.072510 
	C561.961548,530.437988 561.961548,542.968994 561.960327,556.000000 
z"/>
<path fill="#000000" opacity="1.000000" stroke="none" 
	d="
M479.819946,661.372681 
	C475.915558,660.222534 472.443573,659.041016 468.908112,658.097168 
	C465.084564,657.076416 463.743683,654.839417 463.772766,650.829468 
	C463.937347,628.164856 463.851227,605.498474 463.852356,582.832703 
	C463.853180,566.000061 463.837158,549.167358 463.885651,532.334839 
	C463.891205,530.403442 463.391663,528.323364 464.825378,526.540833 
	C466.822449,525.991638 467.871490,527.551270 469.073395,528.539429 
	C478.854034,536.580994 488.546509,544.730408 498.370789,552.717834 
	C501.184753,555.005676 502.393188,557.567688 502.379547,561.273682 
	C502.259338,593.938660 502.251862,626.604431 502.380981,659.269348 
	C502.398987,663.827087 501.403534,665.664795 496.374939,664.598022 
	C491.018951,663.461792 485.530853,662.911926 479.819946,661.372681 
z"/>
<path fill="#000000" opacity="1.000000" stroke="none" 
	d="
M443.233795,634.924500 
	C442.961517,638.159851 443.876312,641.035034 442.504425,643.617798 
	C440.831451,644.322266 439.828583,643.251404 438.781097,642.523560 
	C419.903137,629.406494 405.512085,612.450195 395.312592,591.866028 
	C393.912689,589.040894 393.486450,586.884399 396.073395,584.351501 
	C410.241394,570.479858 424.256805,556.452393 438.357819,542.512085 
	C439.370605,541.510803 440.285217,540.148865 443.235138,540.436401 
	C443.235138,571.702576 443.235138,603.069885 443.233795,634.924500 
z"/>
</svg>